<?xml version="1.0" standalone="no"?>
<!DOCTYPE svg PUBLIC "-//W3C//DTD SVG 20010904//EN"
 "http://www.w3.org/TR/2001/REC-SVG-20010904/DTD/svg10.dtd">
<svg version="1.0" xmlns="http://www.w3.org/2000/svg"
 width="167.000000pt" height="167.000000pt" viewBox="0 0 167.000000 167.000000"
 preserveAspectRatio="xMidYMid meet">
<metadata>
Created by potrace 1.14, written by Peter Selinger 2001-2017
</metadata>
<g transform="translate(0.000000,167.000000) scale(0.100000,-0.100000)"
fill="#000000" stroke="none">
<path d="M440 1405 c0 -9 -7 -18 -15 -21 -8 -4 -15 -10 -15 -14 0 -5 -45 -78
-100 -162 l-100 -153 37 -8 c20 -4 38 -9 40 -11 3 -2 -30 -56 -71 -120 -42
-64 -76 -120 -76 -125 0 -5 -3 -11 -7 -13 -11 -4 -63 -86 -63 -98 0 -5 14 -8
30 -6 17 2 30 1 30 -3 0 -3 15 -6 34 -5 54 3 57 -7 18 -66 -19 -30 -45 -71
-57 -90 -12 -19 -38 -61 -58 -92 -20 -32 -37 -62 -37 -68 0 -5 -4 -10 -9 -10
-5 0 -11 -7 -14 -15 -5 -12 103 -14 829 -14 555 0 834 3 834 10 0 6 -4 7 -10
4 -5 -3 -10 -1 -10 5 0 9 -35 66 -50 80 -3 3 -26 37 -50 75 -25 39 -53 79 -62
89 -10 11 -18 26 -18 33 0 7 -4 13 -9 13 -9 0 -21 25 -21 44 0 6 20 10 45 11
25 0 45 -2 45 -5 0 -3 14 -6 31 -6 37 -2 37 -3 -32 114 -29 48 -60 101 -69
117 -9 17 -31 54 -49 82 -18 29 -30 57 -27 62 4 5 19 8 35 6 30 -4 29 -3 -55
136 -46 77 -84 144 -84 150 0 5 -4 9 -8 9 -5 0 -17 18 -28 40 -10 22 -23 40
-29 40 -5 -1 -30 -34 -55 -75 -25 -41 -48 -75 -52 -75 -5 0 -8 -5 -8 -10 0 -6
-22 -44 -50 -85 -28 -41 -50 -79 -50 -85 0 -5 -4 -10 -10 -10 -11 0 -14 -30
-2 -31 4 0 17 -2 29 -3 13 -2 25 -5 29 -8 3 -3 -13 -33 -34 -66 -29 -46 -42
-58 -51 -49 -6 6 -11 17 -11 24 0 7 -3 13 -7 13 -5 0 -19 23 -32 50 -14 28
-28 50 -32 50 -8 0 -35 62 -31 73 1 4 -1 7 -5 7 -5 0 -37 -46 -73 -103 -35
-56 -69 -107 -75 -113 -7 -8 -19 6 -42 47 -18 33 -33 63 -33 68 0 4 15 7 33 6
l33 -2 -78 131 c-42 72 -83 139 -91 149 -8 9 -22 35 -33 57 -19 40 -44 54 -44
25z"/>
</g>
</svg>
